<?xml version="1.0" encoding="UTF-8" standalone="no"?>
<!-- Created with Inkscape (http://www.inkscape.org/) -->

<svg
   width="36.54097mm"
   height="31.409033mm"
   viewBox="0 0 36.54097 31.409033"
   version="1.1"
   id="svg1"
   xmlns="http://www.w3.org/2000/svg"
   xmlns:svg="http://www.w3.org/2000/svg">
  <defs
     id="defs1" />
  <g
     id="layer1"
     transform="translate(-69.07528,-99.277411)">
    <path
       style="font-variation-settings:normal;opacity:1;vector-effect:none;fill:#ffc2c0;fill-opacity:1;stroke:none;stroke-width:0.264583px;stroke-linecap:butt;stroke-linejoin:miter;stroke-miterlimit:4;stroke-dasharray:none;stroke-dashoffset:0;stroke-opacity:1;-inkscape-stroke:none;stop-color:#000000;stop-opacity:1"
       d="m 89.748552,121.72788 c 0,0 -0.746357,-5.58491 3.491842,-7.70401 4.238199,-2.1191 7.742866,0.73354 7.742866,0.73354 0,0 -0.44828,5.1755 -4.360458,7.05008 -3.912182,1.87459 -6.87425,-0.0796 -6.87425,-0.0796 z"
       id="path34" />
    <path
       id="path51-6"
       style="mix-blend-mode:multiply;fill:#ffc2c0;fill-opacity:1;stroke:none;stroke-width:2.07713;stroke-linecap:round;stroke-linejoin:round;stroke-miterlimit:9;stroke-dasharray:none;stroke-opacity:1;paint-order:stroke fill markers"
       d="m 132.83144,91.991428 c -1.74527,1.498338 -2.16359,3.646916 -2.23258,5.043088 l 0.044,-0.04401 c 1.38681,-1.386849 2.11636,-3.182341 2.18857,-4.999081 z"
       transform="matrix(0.94741797,0,0,1.0432117,-34.023404,19.042976)" />
    <path
       style="font-variation-settings:normal;opacity:1;fill:#ffdad1;fill-opacity:1;stroke:#faece0;stroke-width:2.065;stroke-linecap:butt;stroke-linejoin:miter;stroke-miterlimit:4;stroke-dasharray:none;stroke-dashoffset:0;stroke-opacity:1;paint-order:stroke fill markers;stop-color:#000000;stop-opacity:1"
       d="m 88.339942,116.98207 c -2.015264,-4.94656 -2.203643,-9.89709 2.536842,-14.20572 3.200027,-2.908512 10.024966,-3.586176 13.040606,-0.16301 -4.156687,1.87459 -4.757059,3.98427 -7.416842,9.29143 -2.246549,4.48263 -6.004846,4.68534 -8.160606,5.0773 z"
       id="path33" />
    <path
       style="fill:#3b3838;fill-opacity:1;stroke-linecap:round"
       d="m 94.941406,105.1875 a 0.85000002,0.85000002 0 0 0 -0.597656,0.25586 c -10.081902,10.33395 -8.550781,24.48242 -8.550781,24.48242 a 0.85000002,0.85000002 0 0 0 0.935547,0.75586 0.85000002,0.85000002 0 0 0 0.755859,-0.93555 c 0,0 -1.402848,-13.39924 8.076172,-23.11523 a 0.85000002,0.85000002 0 0 0 -0.01563,-1.20313 0.85000002,0.85000002 0 0 0 -0.603516,-0.24023 z"
       id="path31" />
    <path
       style="font-variation-settings:normal;opacity:1;fill:none;fill-opacity:1;stroke:#3b3838;stroke-width:1.7;stroke-linecap:round;stroke-linejoin:miter;stroke-miterlimit:4;stroke-dasharray:none;stroke-dashoffset:0;stroke-opacity:1;stop-color:#000000;stop-opacity:1"
       d="m 86.638584,129.83562 c 0,0 -0.333527,-6.99793 7.579856,-12.06257"
       id="path32" />
    <path
       id="path51-2"
       style="mix-blend-mode:multiply;fill:#ffc2c0;fill-opacity:1;stroke:none;stroke-width:2.07713;stroke-linecap:round;stroke-linejoin:round;stroke-miterlimit:9;stroke-dasharray:none;stroke-opacity:1;paint-order:stroke fill markers"
       d="m 128.34149,84.822485 c -1.13463,2.909208 -0.56621,5.985728 0.81296,9.060121 0.95947,-0.158431 2.2196,-0.284747 3.53402,-0.700021 0.48038,-2.378374 -0.20144,-4.94492 -2.0456,-6.788871 -0.68336,-0.683346 -1.46594,-1.207089 -2.30138,-1.571229 z"
       transform="matrix(0.94741797,0,0,1.0432117,-34.023404,19.042989)" />
    <path
       id="path51-0"
       style="mix-blend-mode:multiply;fill:#ffc2c0;fill-opacity:1;stroke:none;stroke-width:2.07713;stroke-linecap:round;stroke-linejoin:round;stroke-miterlimit:9;stroke-dasharray:none;stroke-opacity:1;paint-order:stroke fill markers"
       d="m 131.5092,87.430415 c -3.35258,4.873846 -4.55549,9.978401 -4.95245,13.645955 l 2.12326,-2.123135 c 0.53929,-2.893247 1.62158,-6.344234 3.74144,-9.728403 -0.21821,-0.627479 -0.5223,-1.231713 -0.91225,-1.794417 z"
       transform="matrix(0.94741797,0,0,1.0432117,-34.023404,19.042986)" />
    <path
       id="rect34"
       style="opacity:1;fill:#ff7e79;fill-opacity:1;stroke:#faece0;stroke-width:2.7335;stroke-linecap:round;stroke-linejoin:round;stroke-miterlimit:9;stroke-dasharray:none;stroke-opacity:1;paint-order:stroke fill markers"
       d="m 121.54391,106.08903 9.09901,-9.099012 c 2.4133,-2.413364 2.83599,-6.063473 1.26815,-8.910075 -0.5621,-1.020563 -1.93366,-2.39203 -2.95427,-2.954061 -2.84655,-1.56755 -6.49639,-1.144746 -8.90961,1.26841 -2.92599,-2.925913 -7.66993,-2.925749 -10.59572,3.65e-4 -2.92577,2.92585 -2.92577,7.669508 0,10.595358 l 9.09902,9.099015 a 2.1166669,2.1166669 179.99999 0 0 2.99342,0 z"
       transform="matrix(0.75667626,0,0,0.75421086,-11.055959,45.60115)" />
    <path
       style="font-variation-settings:normal;opacity:1;vector-effect:none;fill:#ffb5a8;fill-opacity:1;stroke:none;stroke-width:0.264583px;stroke-linecap:butt;stroke-linejoin:miter;stroke-miterlimit:4;stroke-dasharray:none;stroke-dashoffset:0;stroke-opacity:1;-inkscape-stroke:none;stop-color:#000000;stop-opacity:1"
       d="m 84.845024,111.45314 c 1.408645,-0.11207 2.55339,0.7228 2.661473,1.96503 0.140544,1.6153 -1.595408,1.60036 -1.705356,0.48403 -0.04534,-0.46039 -0.525077,-0.64034 -0.947078,-0.59785 -1.433835,0.14437 -1.495285,-1.85121 -0.009,-1.85121 z"
       id="path54" />
    <path
       id="rect34-7"
       style="mix-blend-mode:multiply;fill:#e89c88;fill-opacity:1;stroke:none;stroke-width:2.065;stroke-linecap:round;stroke-linejoin:round;stroke-miterlimit:9;stroke-dasharray:none;stroke-opacity:1;paint-order:stroke fill markers"
       d="m 75.771908,109.10563 c -1.450897,5e-5 -2.901604,0.55174 -4.008538,1.6552 -2.213868,2.20671 -2.213868,5.78453 0,7.99124 l 6.884846,6.86264 c 0.625468,0.62339 1.639514,0.62339 2.264982,0 l 0.590139,-0.58809 -6.20582,-6.18567 c -2.213861,-2.2067 -2.213861,-5.78453 0,-7.99124 0.68735,-0.68518 1.507405,-1.15722 2.377636,-1.41697 -0.614414,-0.21774 -1.258686,-0.32713 -1.903245,-0.32711 z" />
  </g>
</svg>
