<?xml version="1.0" encoding="UTF-8" standalone="no"?>
<!-- Created with Inkscape (http://www.inkscape.org/) -->

<svg
   width="24.8755mm"
   height="30.411526mm"
   viewBox="0 0 24.8755 30.411526"
   version="1.1"
   id="svg1"
   xmlns="http://www.w3.org/2000/svg"
   xmlns:svg="http://www.w3.org/2000/svg">
  <defs
     id="defs1" />
  <g
     id="layer1"
     transform="translate(-36.080911,-70.445862)">
    <path
       style="font-variation-settings:normal;opacity:1;fill:#d14022;fill-opacity:1;stroke:none;stroke-width:0.265;stroke-linecap:butt;stroke-linejoin:miter;stroke-miterlimit:4;stroke-dasharray:none;stroke-dashoffset:0;stroke-opacity:1;stop-color:#000000;stop-opacity:1"
       d="m 41.562536,90.158263 -3.948493,6.838987 c -0.341176,0.590935 0.109998,1.324516 0.791297,1.286598 l 2.283011,-0.127063 1.042232,2.228505 c 0.281897,0.60276 1.126835,0.63561 1.454684,0.0566 l 3.972658,-7.01651 z m 13.422818,0 3.948493,6.838987 c 0.341176,0.590935 -0.109998,1.324516 -0.791297,1.286598 l -2.283011,-0.127063 -1.042232,2.228505 c -0.281897,0.60276 -1.126835,0.63561 -1.454684,0.0566 l -3.972658,-7.01651 z"
       id="path4" />
    <path
       id="path1-1"
       d="m 35.781971,99.038798 c 0.141788,0.0468 0.286733,0.0874 0.434557,0.121472 2.931164,0.240893 5.737529,1.29074 8.109276,3.02987 l 6.39e-4,4.7e-4 2.374778,-4.19381 -7.716066,-4.505751 z m 16.442515,3.280432 c 1.967099,-1.35004 4.2194,-2.24461 6.590823,-2.609544 l 0.762181,-0.118502 c 0.457543,-0.0037 0.902431,-0.0712 1.325141,-0.194726 L 57.49294,93.491049 49.776874,97.9968 Z"
       style="mix-blend-mode:multiply;fill:#ebbd7d;fill-opacity:1;stroke:none;stroke-width:4.13678;stroke-linecap:round;stroke-linejoin:round;stroke-miterlimit:9;stroke-dasharray:none;stroke-opacity:0.383109;paint-order:stroke fill markers"
       transform="matrix(0.72520158,0,0,0.72520158,13.290404,22.358347)" />
    <path
       style="fill:#ffd9a2;fill-opacity:1;stroke:#ffb567;stroke-width:5.64347;stroke-linecap:round;stroke-linejoin:round;stroke-miterlimit:9;stroke-dasharray:none;stroke-opacity:1;paint-order:stroke fill markers"
       id="path1"
       d="m 64.707488,72.458441 0.117488,0.763463 a 15.920092,15.920092 65.474862 0 0 3.593435,7.875914 4.8632995,4.8632995 96.254459 0 1 -0.656413,5.989364 l -0.456774,0.622926 a 15.920092,15.920092 110.47486 0 0 -3.02817,8.110055 4.8632995,4.8632995 141.25446 0 1 -4.699274,3.770966 l -0.763463,0.117488 a 15.920092,15.920092 155.47486 0 0 -7.875915,3.593433 4.8632995,4.8632995 6.254459 0 1 -5.989364,-0.65641 l -0.622926,-0.45678 A 15.920092,15.920092 20.474862 0 0 36.216057,99.160694 4.8632995,4.8632995 51.254459 0 1 32.445092,94.46142 l -0.117488,-0.763463 a 15.920092,15.920092 65.474862 0 0 -3.593435,-7.875914 4.8632995,4.8632995 96.254459 0 1 0.656414,-5.989364 l 0.456773,-0.622927 a 15.920092,15.920092 110.47486 0 0 3.02817,-8.110054 4.8632995,4.8632995 141.25446 0 1 4.699275,-3.770966 l 0.763462,-0.117488 a 15.920092,15.920092 155.47486 0 0 7.875915,-3.593435 4.8632995,4.8632995 6.254459 0 1 5.989364,0.656414 l 0.622926,0.456773 a 15.920092,15.920092 20.474862 0 0 8.110055,3.02817 4.8632995,4.8632995 51.254459 0 1 3.770965,4.699275 z"
       transform="matrix(0.5315876,0,0,0.5315876,22.696105,38.517347)" />
    <circle
       style="fill:#f9f7b8;fill-opacity:1;stroke:#ffb567;stroke-width:3;stroke-linecap:round;stroke-linejoin:round;stroke-miterlimit:9;stroke-dasharray:none;stroke-opacity:1;paint-order:stroke fill markers"
       id="path2"
       cx="48.518658"
       cy="82.883614"
       r="6.2197118" />
    <path
       style="font-variation-settings:normal;opacity:1;fill:none;fill-opacity:1;stroke:#359144;stroke-width:1.5;stroke-linecap:round;stroke-linejoin:round;stroke-miterlimit:4;stroke-dasharray:none;stroke-dashoffset:0;stroke-opacity:1;stop-color:#000000;stop-opacity:1"
       d="m 44.901634,82.945369 2.97055,2.909711 5.085175,-4.981028"
       id="path3" />
  </g>
</svg>
