<?xml version="1.0" encoding="UTF-8" standalone="no"?>
<!-- Created with Inkscape (http://www.inkscape.org/) -->

<svg
   viewBox="0 0 22.106726 22.759605"
   version="1.1"
   id="svg5"
   xmlns="http://www.w3.org/2000/svg"
   xmlns:svg="http://www.w3.org/2000/svg">
  <defs
     id="defs2" />
  <g
     id="layer1"
     transform="translate(-95.565644,-105.14248)">
    <g
       id="g26"
       transform="translate(0.09384351,-1.5014961)"
       data-depth="0.2">
      <path
         style="font-variation-settings:normal;fill:#ffffff;fill-opacity:1;stroke:#ff7e79;stroke-width:0.266004;stroke-linecap:round;stroke-linejoin:miter;stroke-miterlimit:4;stroke-dasharray:none;stroke-dashoffset:0;stroke-opacity:1;stop-color:#000000"
         d="m 98.051886,116.21248 0.176727,0.33873"
         id="path6" />
      <path
         style="font-variation-settings:normal;fill:#ffffff;fill-opacity:1;stroke:#ff7e79;stroke-width:0.266004;stroke-linecap:round;stroke-linejoin:miter;stroke-miterlimit:4;stroke-dasharray:none;stroke-dashoffset:0;stroke-opacity:1;stop-color:#000000"
         d="m 97.600004,116.71533 0.314671,0.21668"
         id="path7" />
      <path
         style="font-variation-settings:normal;fill:#ffffff;fill-opacity:1;stroke:#ff7e79;stroke-width:0.266004;stroke-linecap:round;stroke-linejoin:miter;stroke-miterlimit:4;stroke-dasharray:none;stroke-dashoffset:0;stroke-opacity:1;stop-color:#000000"
         d="m 97.341636,117.30674 0.346046,0.16194"
         id="path8" />
      <path
         style="font-variation-settings:normal;fill:#ffffff;fill-opacity:1;stroke:#ff7e79;stroke-width:0.266004;stroke-linecap:round;stroke-linejoin:miter;stroke-miterlimit:4;stroke-dasharray:none;stroke-dashoffset:0;stroke-opacity:1;stop-color:#000000"
         d="m 97.29292,117.97023 0.3816,-0.0188"
         id="path9" />
      <path
         style="font-variation-settings:normal;fill:#ffffff;fill-opacity:1;stroke:#ff7e79;stroke-width:0.266004;stroke-linecap:round;stroke-linejoin:miter;stroke-miterlimit:4;stroke-dasharray:none;stroke-dashoffset:0;stroke-opacity:1;stop-color:#000000"
         d="m 97.35145,118.52572 0.368719,-0.10008"
         id="path10" />
      <path
         style="font-variation-settings:normal;fill:#ffffff;fill-opacity:1;stroke:#ff7e79;stroke-width:0.266004;stroke-linecap:round;stroke-linejoin:miter;stroke-miterlimit:4;stroke-dasharray:none;stroke-dashoffset:0;stroke-opacity:1;stop-color:#000000"
         d="m 97.750903,119.05936 0.175732,-0.33925"
         id="path11" />
      <path
         style="font-variation-settings:normal;fill:#ffffff;fill-opacity:1;stroke:#ff7e79;stroke-width:0.266004;stroke-linecap:round;stroke-linejoin:miter;stroke-miterlimit:4;stroke-dasharray:none;stroke-dashoffset:0;stroke-opacity:1;stop-color:#000000"
         d="m 98.40298,119.08179 -0.118286,-0.36328"
         id="path12" />
      <path
         style="font-variation-settings:normal;fill:#ffffff;fill-opacity:1;stroke:#ff7e79;stroke-width:0.266004;stroke-linecap:round;stroke-linejoin:miter;stroke-miterlimit:4;stroke-dasharray:none;stroke-dashoffset:0;stroke-opacity:1;stop-color:#000000"
         d="m 98.843468,118.6197 -0.364024,-0.11599"
         id="path13" />
      <path
         style="font-variation-settings:normal;fill:#ffffff;fill-opacity:1;stroke:#ff7e79;stroke-width:0.266004;stroke-linecap:round;stroke-linejoin:miter;stroke-miterlimit:4;stroke-dasharray:none;stroke-dashoffset:0;stroke-opacity:1;stop-color:#000000"
         d="M 99.004883,117.93239 98.640857,117.8164"
         id="path14" />
      <path
         style="font-variation-settings:normal;fill:#ffffff;fill-opacity:1;stroke:#ff7e79;stroke-width:0.266004;stroke-linecap:round;stroke-linejoin:miter;stroke-miterlimit:4;stroke-dasharray:none;stroke-dashoffset:0;stroke-opacity:1;stop-color:#000000"
         d="m 99.210964,117.34826 -0.33881,-0.17656"
         id="path15" />
      <path
         style="font-variation-settings:normal;fill:#ffffff;fill-opacity:1;stroke:#ff7e79;stroke-width:0.266004;stroke-linecap:round;stroke-linejoin:miter;stroke-miterlimit:4;stroke-dasharray:none;stroke-dashoffset:0;stroke-opacity:1;stop-color:#000000"
         d="m 99.317177,116.60283 -0.36379,0.11672"
         id="path16" />
      <path
         style="font-variation-settings:normal;fill:#ffffff;fill-opacity:1;stroke:#ff7e79;stroke-width:0.266004;stroke-linecap:round;stroke-linejoin:miter;stroke-miterlimit:4;stroke-dasharray:none;stroke-dashoffset:0;stroke-opacity:1;stop-color:#000000"
         d="m 98.705512,116.08528 -0.02563,0.3812"
         id="path17" />
      <path
         style="font-variation-settings:normal;fill:#ffe6d0;fill-opacity:1;stroke:#ff7e79;stroke-width:0.266004;stroke-linecap:butt;stroke-linejoin:miter;stroke-miterlimit:4;stroke-dasharray:none;stroke-dashoffset:0;stroke-opacity:1;stop-color:#000000"
         d="m 97.501867,117.69015 c 0.06137,-0.85334 0.963904,-1.77504 1.486044,-1.14774 0.363894,0.43719 -0.05056,0.81847 -0.156561,1.19377 -0.163668,0.57947 -0.0607,1.12637 -0.661564,1.13386 -0.419561,0.005 -0.735731,-0.23707 -0.667919,-1.17989 z"
         id="path5" />
      <path
         id="path18"
         style="fill:#ff7e79;fill-opacity:1;stroke:none;stroke-width:0.266004;stroke-linecap:round;stroke-linejoin:round;stroke-miterlimit:9;stroke-dasharray:none;stroke-opacity:1;paint-order:stroke fill markers"
         d="m 98.106902,117.58583 a 0.39570153,0.39570153 0 0 0 -0.395799,0.39579 0.39570153,0.39570153 0 0 0 0.395799,0.3958 0.39570153,0.39570153 0 0 0 0.395797,-0.3958 0.39570153,0.39570153 0 0 0 -0.395797,-0.39579 z" />
    </g>
    <g
       id="c3-cara"
       data-depth="-2"
       transform="translate(0.09384351,-1.5014961)">
      <path
         style="font-variation-settings:normal;vector-effect:none;fill:#ff9e9a;fill-opacity:1;stroke:none;stroke-width:0.167176px;stroke-linecap:butt;stroke-linejoin:miter;stroke-miterlimit:4;stroke-dasharray:none;stroke-dashoffset:0;stroke-opacity:1;-inkscape-stroke:none;stop-color:#000000"
         d="m 105.67043,108.52153 c 2.02761,-2.93143 5.03292,-1.93823 7.1992,-1.20131 1.50572,0.51221 2.98776,1.16859 2.98776,1.16859 l -0.12684,1.00328 c 0,0 -1.81931,2.96014 -4.53627,3.38303 -1.7278,0.26893 -3.47748,-0.44712 -4.26228,-1.255 -0.56161,-0.57813 -1.57245,-2.64912 -1.26157,-3.09859 z"
         id="path20" />
      <path
         style="font-variation-settings:normal;vector-effect:none;fill:#ffffff;fill-opacity:1;stroke:none;stroke-width:0.264583px;stroke-linecap:butt;stroke-linejoin:miter;stroke-miterlimit:4;stroke-dasharray:none;stroke-dashoffset:0;stroke-opacity:1;-inkscape-stroke:none;stop-color:#000000"
         d="m 116.27378,108.97442 c 0,0 -6.0825,-1.20955 -7.4762,-0.90715 -1.6579,0.35973 -1.85633,0.51741 -1.87687,0.71164 -0.0182,0.1723 0.70382,0.21115 0.70382,0.21115 0,0 -0.87899,0.36443 -1.18086,0.0626 -0.50982,-0.50983 -0.44576,-1.59534 -0.44576,-1.59534 l 2.94043,-1.59534 7.27288,2.01763 z"
         id="path21" />
      <path
         style="font-variation-settings:normal;vector-effect:none;fill:#ff7e79;fill-opacity:1;stroke:none;stroke-width:0.264583px;stroke-linecap:butt;stroke-linejoin:miter;stroke-miterlimit:4;stroke-dasharray:none;stroke-dashoffset:0;stroke-opacity:1;-inkscape-stroke:none;stop-color:#000000"
         d="m 108.68229,113.03901 c -0.95809,-1.19761 0.30518,-1.99536 1.72529,-2.14556 1.81614,-0.19207 4.35747,0.75205 4.35747,0.75205 l -4.44595,2.23403 z"
         id="path22" />
      <path
         id="path19"
         style="fill:#fae7e0;stroke-width:0.704559;stroke-linecap:round;stroke-linejoin:round;stroke-miterlimit:9;paint-order:stroke fill markers"
         d="m 112.11347,95.914618 c -5.40742,0 -9.56996,3.454571 -9.56996,8.861992 0,5.40743 4.6934,11.8036 9.56996,10.71976 2.49305,-0.55409 5.23332,-3.01267 6.97653,-4.61423 1.94775,-1.78948 2.8146,-2.32284 2.8146,-5.17639 0,-5.40742 -4.38371,-9.791132 -9.79113,-9.791132 z m -2.89543,10.630882 c 1.27556,-0.026 2.56832,0.40617 3.65146,0.77463 1.50572,0.51221 2.98793,1.16892 2.98793,1.16892 l -0.12713,1.00303 c 0,0 -1.8192,2.96037 -4.53615,3.38326 -1.7278,0.26893 -3.47747,-0.44733 -4.26228,-1.25522 -0.5616,-0.57812 -1.5723,-2.64906 -1.26142,-3.09852 1.01381,-1.46571 2.27203,-1.95009 3.54759,-1.9761 z" />
      <path
         style="font-variation-settings:normal;vector-effect:none;fill:#ffcea2;fill-opacity:1;stroke:none;stroke-width:0.264583px;stroke-linecap:butt;stroke-linejoin:miter;stroke-miterlimit:4;stroke-dasharray:none;stroke-dashoffset:0;stroke-opacity:1;-inkscape-stroke:none;stop-color:#000000"
         d="m 106.93903,104.86919 c -0.14338,-0.20074 1.33486,-1.86618 3.22196,-0.18769 -1.25124,0.3441 -2.83474,0.57491 -3.22196,0.18769 z"
         id="path23" />
    </g>
    <g
       id="g29"
       transform="translate(0.09384351,-1.5014961)"
       data-depth="-0.4">
      <path
         style="font-variation-settings:normal;fill:#ffffff;fill-opacity:1;stroke:#ff7e79;stroke-width:0.231101;stroke-linecap:round;stroke-linejoin:miter;stroke-miterlimit:4;stroke-dasharray:none;stroke-dashoffset:0;stroke-opacity:1;stop-color:#000000"
         d="m 108.59311,114.82551 0.14716,0.29752"
         id="path6-8-1" />
      <path
         style="font-variation-settings:normal;fill:#ffffff;fill-opacity:1;stroke:#ff7e79;stroke-width:0.231101;stroke-linecap:round;stroke-linejoin:miter;stroke-miterlimit:4;stroke-dasharray:none;stroke-dashoffset:0;stroke-opacity:1;stop-color:#000000"
         d="m 108.1912,115.25381 0.26926,0.1941"
         id="path7-6-3" />
      <path
         style="font-variation-settings:normal;fill:#ffffff;fill-opacity:1;stroke:#ff7e79;stroke-width:0.231101;stroke-linecap:round;stroke-linejoin:miter;stroke-miterlimit:4;stroke-dasharray:none;stroke-dashoffset:0;stroke-opacity:1;stop-color:#000000"
         d="m 107.95571,115.76266 0.29754,0.14714"
         id="path8-50-8" />
      <path
         style="font-variation-settings:normal;fill:#ffffff;fill-opacity:1;stroke:#ff7e79;stroke-width:0.231101;stroke-linecap:round;stroke-linejoin:miter;stroke-miterlimit:4;stroke-dasharray:none;stroke-dashoffset:0;stroke-opacity:1;stop-color:#000000"
         d="m 107.90097,116.33805 0.33181,-0.009"
         id="path9-28-9" />
      <path
         style="font-variation-settings:normal;fill:#ffffff;fill-opacity:1;stroke:#ff7e79;stroke-width:0.231101;stroke-linecap:round;stroke-linejoin:miter;stroke-miterlimit:4;stroke-dasharray:none;stroke-dashoffset:0;stroke-opacity:1;stop-color:#000000"
         d="m 107.94141,116.82163 0.32214,-0.08"
         id="path10-6-3" />
      <path
         style="font-variation-settings:normal;fill:#ffffff;fill-opacity:1;stroke:#ff7e79;stroke-width:0.231101;stroke-linecap:round;stroke-linejoin:miter;stroke-miterlimit:4;stroke-dasharray:none;stroke-dashoffset:0;stroke-opacity:1;stop-color:#000000"
         d="m 108.27837,117.29262 0.15899,-0.29137"
         id="path11-0-4" />
      <path
         style="font-variation-settings:normal;fill:#ffffff;fill-opacity:1;stroke:#ff7e79;stroke-width:0.231101;stroke-linecap:round;stroke-linejoin:miter;stroke-miterlimit:4;stroke-dasharray:none;stroke-dashoffset:0;stroke-opacity:1;stop-color:#000000"
         d="m 108.84434,117.32432 -0.0959,-0.31776"
         id="path12-2-4" />
      <path
         style="font-variation-settings:normal;fill:#ffffff;fill-opacity:1;stroke:#ff7e79;stroke-width:0.231101;stroke-linecap:round;stroke-linejoin:miter;stroke-miterlimit:4;stroke-dasharray:none;stroke-dashoffset:0;stroke-opacity:1;stop-color:#000000"
         d="m 109.23559,116.9312 -0.31401,-0.10757"
         id="path13-48-6" />
      <path
         style="font-variation-settings:normal;fill:#ffffff;fill-opacity:1;stroke:#ff7e79;stroke-width:0.231101;stroke-linecap:round;stroke-linejoin:miter;stroke-miterlimit:4;stroke-dasharray:none;stroke-dashoffset:0;stroke-opacity:1;stop-color:#000000"
         d="m 109.38867,116.33724 -0.31402,-0.10757"
         id="path14-6-0" />
      <path
         style="font-variation-settings:normal;fill:#ffffff;fill-opacity:1;stroke:#ff7e79;stroke-width:0.231101;stroke-linecap:round;stroke-linejoin:miter;stroke-miterlimit:4;stroke-dasharray:none;stroke-dashoffset:0;stroke-opacity:1;stop-color:#000000"
         d="m 109.5786,115.83373 -0.29098,-0.1597"
         id="path15-5-6" />
      <path
         style="font-variation-settings:normal;fill:#ffffff;fill-opacity:1;stroke:#ff7e79;stroke-width:0.231101;stroke-linecap:round;stroke-linejoin:miter;stroke-miterlimit:4;stroke-dasharray:none;stroke-dashoffset:0;stroke-opacity:1;stop-color:#000000"
         d="m 109.68482,115.18825 -0.31817,0.0946"
         id="path16-0-6" />
      <path
         style="font-variation-settings:normal;fill:#ffffff;fill-opacity:1;stroke:#ff7e79;stroke-width:0.231101;stroke-linecap:round;stroke-linejoin:miter;stroke-miterlimit:4;stroke-dasharray:none;stroke-dashoffset:0;stroke-opacity:1;stop-color:#000000"
         d="m 109.16323,114.72726 -0.0294,0.33062"
         id="path17-9-1" />
      <path
         style="font-variation-settings:normal;fill:#ffe6d0;fill-opacity:1;stroke:#ff7e79;stroke-width:0.231101;stroke-linecap:butt;stroke-linejoin:miter;stroke-miterlimit:4;stroke-dasharray:none;stroke-dashoffset:0;stroke-opacity:1;stop-color:#000000"
         d="m 108.0877,116.09868 c 0.0693,-0.74005 0.87048,-1.52372 1.31225,-0.96908 0.30789,0.38656 -0.0592,0.70997 -0.15834,1.03396 -0.15301,0.50026 -0.0738,0.97722 -0.59586,0.97247 -0.36452,-0.003 -0.6346,-0.2197 -0.55805,-1.03735 z"
         id="path5-0-8" />
      <path
         id="path18-0-4"
         style="fill:#ff7e79;fill-opacity:1;stroke:none;stroke-width:0.2311;stroke-linecap:round;stroke-linejoin:round;stroke-miterlimit:9;stroke-dasharray:none;stroke-opacity:1;paint-order:stroke fill markers"
         d="m 108.61518,116.0194 a 0.34377992,0.34377992 0 0 0 -0.35119,0.33637 0.34377992,0.34377992 0 0 0 0.33637,0.3512 0.34377992,0.34377992 0 0 0 0.35119,-0.33637 0.34377992,0.34377992 0 0 0 -0.33637,-0.3512 z" />
    </g>
    <g
       id="c3-b5"
       transform="translate(0.21896819,-2.3773689)"
       data-depth="-0.8">
      <path
         style="font-variation-settings:normal;fill:#ffffff;fill-opacity:1;stroke:#ff7e79;stroke-width:0.231101;stroke-linecap:round;stroke-linejoin:miter;stroke-miterlimit:4;stroke-dasharray:none;stroke-dashoffset:0;stroke-opacity:1;stop-color:#000000"
         d="m 103.18738,115.62979 -0.29327,0.15547"
         id="path10-6" />
      <path
         style="font-variation-settings:normal;fill:#ffffff;fill-opacity:1;stroke:#ff7e79;stroke-width:0.231101;stroke-linecap:round;stroke-linejoin:miter;stroke-miterlimit:4;stroke-dasharray:none;stroke-dashoffset:0;stroke-opacity:1;stop-color:#000000"
         d="m 103.25092,116.20541 -0.31289,-0.1108"
         id="path11-0" />
      <path
         style="font-variation-settings:normal;fill:#ffffff;fill-opacity:1;stroke:#ff7e79;stroke-width:0.231101;stroke-linecap:round;stroke-linejoin:miter;stroke-miterlimit:4;stroke-dasharray:none;stroke-dashoffset:0;stroke-opacity:1;stop-color:#000000"
         d="M 102.8507,116.60684 102.71,116.3062"
         id="path12-2" />
      <path
         style="font-variation-settings:normal;fill:#ffffff;fill-opacity:1;stroke:#ff7e79;stroke-width:0.231101;stroke-linecap:round;stroke-linejoin:miter;stroke-miterlimit:4;stroke-dasharray:none;stroke-dashoffset:0;stroke-opacity:1;stop-color:#000000"
         d="m 102.29696,116.57534 0.16198,-0.28972"
         id="path13-48" />
      <path
         style="font-variation-settings:normal;fill:#ffffff;fill-opacity:1;stroke:#ff7e79;stroke-width:0.231101;stroke-linecap:round;stroke-linejoin:miter;stroke-miterlimit:4;stroke-dasharray:none;stroke-dashoffset:0;stroke-opacity:1;stop-color:#000000"
         d="m 101.78647,116.2353 0.16199,-0.28972"
         id="path14-6" />
      <path
         style="font-variation-settings:normal;fill:#ffffff;fill-opacity:1;stroke:#ff7e79;stroke-width:0.231101;stroke-linecap:round;stroke-linejoin:miter;stroke-miterlimit:4;stroke-dasharray:none;stroke-dashoffset:0;stroke-opacity:1;stop-color:#000000"
         d="m 101.30893,115.98722 0.11002,-0.31316"
         id="path15-5" />
      <path
         style="font-variation-settings:normal;fill:#ffffff;fill-opacity:1;stroke:#ff7e79;stroke-width:0.231101;stroke-linecap:round;stroke-linejoin:miter;stroke-miterlimit:4;stroke-dasharray:none;stroke-dashoffset:0;stroke-opacity:1;stop-color:#000000"
         d="m 101.36959,114.57866 0.0891,0.31976"
         id="path6-8" />
      <path
         style="font-variation-settings:normal;fill:#ffffff;fill-opacity:1;stroke:#ff7e79;stroke-width:0.231101;stroke-linecap:round;stroke-linejoin:miter;stroke-miterlimit:4;stroke-dasharray:none;stroke-dashoffset:0;stroke-opacity:1;stop-color:#000000"
         d="m 101.95475,114.62924 -0.0709,0.32427"
         id="path7-6" />
      <path
         style="font-variation-settings:normal;fill:#ffffff;fill-opacity:1;stroke:#ff7e79;stroke-width:0.231101;stroke-linecap:round;stroke-linejoin:miter;stroke-miterlimit:4;stroke-dasharray:none;stroke-dashoffset:0;stroke-opacity:1;stop-color:#000000"
         d="m 102.46979,114.85089 -0.12331,0.30818"
         id="path8-50" />
      <path
         style="font-variation-settings:normal;fill:#ffffff;fill-opacity:1;stroke:#ff7e79;stroke-width:0.231101;stroke-linecap:round;stroke-linejoin:miter;stroke-miterlimit:4;stroke-dasharray:none;stroke-dashoffset:0;stroke-opacity:1;stop-color:#000000"
         d="m 102.89465,115.24275 -0.25316,0.21467"
         id="path9-28" />
      <path
         style="font-variation-settings:normal;fill:#ffffff;fill-opacity:1;stroke:#ff7e79;stroke-width:0.231101;stroke-linecap:round;stroke-linejoin:miter;stroke-miterlimit:4;stroke-dasharray:none;stroke-dashoffset:0;stroke-opacity:1;stop-color:#000000"
         d="m 100.79893,115.57754 0.30002,-0.142"
         id="path16-0" />
      <path
         style="font-variation-settings:normal;fill:#ffffff;fill-opacity:1;stroke:#ff7e79;stroke-width:0.231101;stroke-linecap:round;stroke-linejoin:miter;stroke-miterlimit:4;stroke-dasharray:none;stroke-dashoffset:0;stroke-opacity:1;stop-color:#000000"
         d="m 100.87953,114.88611 0.24261,0.22653"
         id="path17-9" />
      <path
         style="font-variation-settings:normal;fill:#ffe6d0;fill-opacity:1;stroke:#ff7e79;stroke-width:0.231101;stroke-linecap:butt;stroke-linejoin:miter;stroke-miterlimit:4;stroke-dasharray:none;stroke-dashoffset:0;stroke-opacity:1;stop-color:#000000"
         d="m 102.59583,115.18919 c -0.54563,-0.50474 -1.6653,-0.55336 -1.62396,0.15451 0.0288,0.49334 0.51807,0.48905 0.80814,0.66412 0.44789,0.27031 0.70733,0.67829 1.09284,0.32626 0.26919,-0.24582 0.32582,-0.58723 -0.27702,-1.14489 z"
         id="path5-0" />
      <path
         id="path18-0"
         style="fill:#ff7e79;fill-opacity:1;stroke:none;stroke-width:0.2311;stroke-linecap:round;stroke-linejoin:round;stroke-miterlimit:9;stroke-dasharray:none;stroke-opacity:1;paint-order:stroke fill markers"
         d="m 102.15018,115.4823 a 0.34377991,0.34377991 0 0 1 0.48603,0.016 0.34377991,0.34377991 0 0 1 -0.016,0.48604 0.34377991,0.34377991 0 0 1 -0.48603,-0.016 0.34377991,0.34377991 0 0 1 0.016,-0.48603 z" />
    </g>
    <g
       id="c3-tenedor"
       transform="translate(0.21896819,-2.3773689)"
       data-depth="0.5">
      <path
         style="font-variation-settings:normal;opacity:1;vector-effect:none;fill:#3b3838;fill-opacity:1;stroke:none;stroke-width:0.264583px;stroke-linecap:butt;stroke-linejoin:miter;stroke-miterlimit:4;stroke-dasharray:none;stroke-dashoffset:0;stroke-opacity:1;-inkscape-stroke:none;stop-color:#000000;stop-opacity:1"
         d="m 99.381948,135.34188 c 0,0 3.650712,-6.5223 3.138722,-7.72436 -0.51199,-1.20207 -1.13528,-2.13701 -0.33391,-3.89558 0.80137,-1.75857 2.40412,-3.3168 2.58221,-3.5394 0.17808,-0.22261 0.5565,0.0222 0.3339,0.28938 -0.2226,0.26713 -1.3908,1.58935 -2.07618,3.0861 -0.14108,0.30809 -0.30639,0.58757 -0.0362,0.70209 0.14996,0.0636 0.4379,-0.48093 0.61749,-0.79617 0.90111,-1.58178 1.77487,-2.48221 2.08651,-2.83836 0.31165,-0.35618 0.7459,-0.11857 0.43217,0.25813 -1.97846,2.37555 -2.16816,3.01399 -2.25721,3.37016 -0.0401,0.16027 -0.0551,0.31767 0.044,0.36685 0.0914,0.0454 0.18362,0.0425 0.30017,-0.19973 0.75642,-1.57201 2.04957,-2.96246 2.45359,-3.32064 0.29191,-0.2588 0.64806,0.0675 0.35234,0.34719 -0.93509,0.88421 -2.08944,2.55434 -2.44324,3.81035 -0.25206,0.89479 -0.0453,1.96634 -0.45865,2.89385 -0.43408,0.97389 -2.44307,6.67813 -2.44307,6.67813 z"
         id="path1" />
      <g
         id="g4"
         transform="matrix(0.53204322,0,0,0.53204322,48.570136,60.276059)"
         style="stroke-width:1.87954">
        <path
           style="font-variation-settings:normal;opacity:1;vector-effect:none;fill:#ffbc80;fill-opacity:1;stroke:none;stroke-width:0.497297px;stroke-linecap:butt;stroke-linejoin:miter;stroke-miterlimit:4;stroke-dasharray:none;stroke-dashoffset:0;stroke-opacity:1;-inkscape-stroke:none;stop-color:#000000;stop-opacity:1"
           d="m 100.96271,112.39755 5.17588,0.17696 2.14555,-6.25972 -5.19799,0.59722 z"
           id="path4" />
        <path
           style="font-variation-settings:normal;opacity:1;vector-effect:none;fill:#ffcea2;fill-opacity:1;stroke:none;stroke-width:0.497297px;stroke-linecap:butt;stroke-linejoin:miter;stroke-miterlimit:4;stroke-dasharray:none;stroke-dashoffset:0;stroke-opacity:1;-inkscape-stroke:none;stop-color:#000000;stop-opacity:1"
           d="m 109.23527,117.21952 c 0,0 2.21191,-1.15019 2.96396,-2.61006 -1.5041,-1.23867 -3.93721,-2.96396 -3.84873,-4.73349 0.0885,-1.76953 0.30967,-3.49482 0.30967,-3.49482 l -1.32715,0.0442 -0.5751,3.09668 -1.94648,-1.99073 -0.79629,0.88477 1.81377,2.0792 -3.22939,-0.79629 -0.66358,1.41562 2.49946,0.84052 -2.65429,0.0442 -0.42026,0.88476 c 0,0 4.57865,0.64146 5.59613,1.34927 1.01748,0.70781 2.27828,2.98608 2.27828,2.98608 z"
           id="path2" />
        <path
           id="path3"
           style="fill:#ffbc80;fill-opacity:1;stroke-width:0.498078;stroke-linecap:round;stroke-linejoin:round;stroke-miterlimit:9;paint-order:stroke fill markers"
           d="m 103.60753,102.69922 a 3.5832987,3.5832987 0 0 0 -3.58324,3.58324 3.5832987,3.5832987 0 0 0 0.13539,0.9648 2.7427719,2.7427719 0 0 0 -0.0475,-10e-4 2.7427719,2.7427719 0 0 0 -2.742989,2.74298 2.7427719,2.7427719 0 0 0 1.286227,2.32182 2.2119129,2.2119129 0 0 0 -0.170016,0.83871 2.2119129,2.2119129 0 0 0 2.211748,2.21175 2.2119129,2.2119129 0 0 0 2.21227,-2.21175 2.2119129,2.2119129 0 0 0 -0.6072,-1.52135 2.7427719,2.7427719 0 0 0 0.55242,-1.63918 2.7427719,2.7427719 0 0 0 -0.009,-0.21445 3.5832987,3.5832987 0 0 0 0.76171,0.091 3.5832987,3.5832987 0 0 0 3.31504,-2.24224 2.7427719,2.7427719 0 0 0 2.00143,0.87539 2.7427719,2.7427719 0 0 0 2.74247,-2.74298 2.7427719,2.7427719 0 0 0 -2.74247,-2.74299 2.7427719,2.7427719 0 0 0 -2.32647,1.29553 3.5832987,3.5832987 0 0 0 -2.99,-1.6092 z" />
      </g>
    </g>
    <g
       id="g27"
       transform="translate(0.09384351,-1.5014961)"
       data-depth="1.1">
      <path
         style="font-variation-settings:normal;fill:#ffffff;fill-opacity:1;stroke:#ff7e79;stroke-width:0.333565;stroke-linecap:round;stroke-linejoin:miter;stroke-miterlimit:4;stroke-dasharray:none;stroke-dashoffset:0;stroke-opacity:1;stop-color:#000000"
         d="m 103.06861,121.19668 -0.47909,0.003"
         id="path6-1" />
      <path
         style="font-variation-settings:normal;fill:#ffffff;fill-opacity:1;stroke:#ff7e79;stroke-width:0.333565;stroke-linecap:round;stroke-linejoin:miter;stroke-miterlimit:4;stroke-dasharray:none;stroke-dashoffset:0;stroke-opacity:1;stop-color:#000000"
         d="m 102.77701,121.99271 -0.42493,-0.22131"
         id="path7-1" />
      <path
         style="font-variation-settings:normal;fill:#ffffff;fill-opacity:1;stroke:#ff7e79;stroke-width:0.333565;stroke-linecap:round;stroke-linejoin:miter;stroke-miterlimit:4;stroke-dasharray:none;stroke-dashoffset:0;stroke-opacity:1;stop-color:#000000"
         d="m 102.27359,122.6264 -0.3827,-0.28824"
         id="path8-5" />
      <path
         style="font-variation-settings:normal;fill:#ffffff;fill-opacity:1;stroke:#ff7e79;stroke-width:0.333565;stroke-linecap:round;stroke-linejoin:miter;stroke-miterlimit:4;stroke-dasharray:none;stroke-dashoffset:0;stroke-opacity:1;stop-color:#000000"
         d="m 101.56717,123.07015 -0.20338,-0.43379"
         id="path9-2" />
      <path
         style="font-variation-settings:normal;fill:#ffffff;fill-opacity:1;stroke:#ff7e79;stroke-width:0.333565;stroke-linecap:round;stroke-linejoin:miter;stroke-miterlimit:4;stroke-dasharray:none;stroke-dashoffset:0;stroke-opacity:1;stop-color:#000000"
         d="m 100.91738,123.33166 -0.10574,-0.46729"
         id="path10-7" />
      <path
         style="font-variation-settings:normal;fill:#ffffff;fill-opacity:1;stroke:#ff7e79;stroke-width:0.333565;stroke-linecap:round;stroke-linejoin:miter;stroke-miterlimit:4;stroke-dasharray:none;stroke-dashoffset:0;stroke-opacity:1;stop-color:#000000"
         d="m 100.09151,123.20263 0.2726,-0.39399"
         id="path11-6" />
      <path
         style="font-variation-settings:normal;fill:#ffffff;fill-opacity:1;stroke:#ff7e79;stroke-width:0.333565;stroke-linecap:round;stroke-linejoin:miter;stroke-miterlimit:4;stroke-dasharray:none;stroke-dashoffset:0;stroke-opacity:1;stop-color:#000000"
         d="m 99.683574,122.4934 0.471956,-0.0824"
         id="path12-1" />
      <path
         style="font-variation-settings:normal;fill:#ffffff;fill-opacity:1;stroke:#ff7e79;stroke-width:0.333565;stroke-linecap:round;stroke-linejoin:miter;stroke-miterlimit:4;stroke-dasharray:none;stroke-dashoffset:0;stroke-opacity:1;stop-color:#000000"
         d="m 99.936725,121.73393 0.342365,0.33514"
         id="path13-4" />
      <path
         style="font-variation-settings:normal;fill:#ffffff;fill-opacity:1;stroke:#ff7e79;stroke-width:0.333565;stroke-linecap:round;stroke-linejoin:miter;stroke-miterlimit:4;stroke-dasharray:none;stroke-dashoffset:0;stroke-opacity:1;stop-color:#000000"
         d="m 100.60333,121.15132 0.34236,0.33515"
         id="path14-2" />
      <path
         style="font-variation-settings:normal;fill:#ffffff;fill-opacity:1;stroke:#ff7e79;stroke-width:0.333565;stroke-linecap:round;stroke-linejoin:miter;stroke-miterlimit:4;stroke-dasharray:none;stroke-dashoffset:0;stroke-opacity:1;stop-color:#000000"
         d="m 101.12939,120.57985 0.39465,0.27162"
         id="path15-3" />
      <path
         style="font-variation-settings:normal;fill:#ffffff;fill-opacity:1;stroke:#ff7e79;stroke-width:0.333565;stroke-linecap:round;stroke-linejoin:miter;stroke-miterlimit:4;stroke-dasharray:none;stroke-dashoffset:0;stroke-opacity:1;stop-color:#000000"
         d="m 101.89282,120.02425 0.0844,0.4716"
         id="path16-2" />
      <path
         style="font-variation-settings:normal;fill:#ffffff;fill-opacity:1;stroke:#ff7e79;stroke-width:0.333565;stroke-linecap:round;stroke-linejoin:miter;stroke-miterlimit:4;stroke-dasharray:none;stroke-dashoffset:0;stroke-opacity:1;stop-color:#000000"
         d="m 102.82553,120.39783 -0.40725,0.25234"
         id="path17-2" />
      <path
         style="font-variation-settings:normal;fill:#ffe6d0;fill-opacity:1;stroke:#ff7e79;stroke-width:0.333565;stroke-linecap:butt;stroke-linejoin:miter;stroke-miterlimit:4;stroke-dasharray:none;stroke-dashoffset:0;stroke-opacity:1;stop-color:#000000"
         d="m 101.7547,122.67413 c 0.90932,-0.56932 1.4002,-2.11067 0.39849,-2.3206 -0.69812,-0.14629 -0.87703,0.53685 -1.23054,0.87477 -0.54582,0.52176 -1.212192,0.72898 -0.86749,1.39905 0.2407,0.46788 0.69488,0.6758 1.69954,0.0468 z"
         id="path5-1" />
      <path
         id="path18-6"
         style="fill:#ff7e79;fill-opacity:1;stroke:none;stroke-width:0.333564;stroke-linecap:round;stroke-linejoin:round;stroke-miterlimit:9;stroke-dasharray:none;stroke-opacity:1;paint-order:stroke fill markers"
         d="m 101.51482,121.94255 a 0.49620316,0.49620316 0 0 1 -0.20595,0.67101 0.49620316,0.49620316 0 0 1 -0.67102,-0.20595 0.49620316,0.49620316 0 0 1 0.20596,-0.67102 0.49620316,0.49620316 0 0 1 0.67101,0.20596 z" />
    </g>
    <g
       id="g30"
       transform="translate(0.09384351,-1.5014961)"
       data-depth="1.5">
      <path
         style="font-variation-settings:normal;fill:#ffffff;fill-opacity:1;stroke:#ff7e79;stroke-width:0.375983;stroke-linecap:round;stroke-linejoin:miter;stroke-miterlimit:4;stroke-dasharray:none;stroke-dashoffset:0;stroke-opacity:1;stop-color:#000000"
         d="m 106.15921,119.81183 0.33137,-0.42641"
         id="path6-1-5" />
      <path
         style="font-variation-settings:normal;fill:#ffffff;fill-opacity:1;stroke:#ff7e79;stroke-width:0.375983;stroke-linecap:round;stroke-linejoin:miter;stroke-miterlimit:4;stroke-dasharray:none;stroke-dashoffset:0;stroke-opacity:1;stop-color:#000000"
         d="m 105.65785,118.99836 0.49236,-0.22183"
         id="path7-1-7" />
      <path
         style="font-variation-settings:normal;fill:#ffffff;fill-opacity:1;stroke:#ff7e79;stroke-width:0.375983;stroke-linecap:round;stroke-linejoin:miter;stroke-miterlimit:4;stroke-dasharray:none;stroke-dashoffset:0;stroke-opacity:1;stop-color:#000000"
         d="m 105.44798,118.1106 0.52216,-0.13776"
         id="path8-5-6" />
      <path
         style="font-variation-settings:normal;fill:#ffffff;fill-opacity:1;stroke:#ff7e79;stroke-width:0.375983;stroke-linecap:round;stroke-linejoin:miter;stroke-miterlimit:4;stroke-dasharray:none;stroke-dashoffset:0;stroke-opacity:1;stop-color:#000000"
         d="m 105.54789,117.1756 0.52593,0.12254"
         id="path9-2-1" />
      <path
         style="font-variation-settings:normal;fill:#ffffff;fill-opacity:1;stroke:#ff7e79;stroke-width:0.375983;stroke-linecap:round;stroke-linejoin:miter;stroke-miterlimit:4;stroke-dasharray:none;stroke-dashoffset:0;stroke-opacity:1;stop-color:#000000"
         d="m 105.76964,116.41787 0.48748,0.23236"
         id="path10-7-8" />
      <path
         style="font-variation-settings:normal;fill:#ffffff;fill-opacity:1;stroke:#ff7e79;stroke-width:0.375983;stroke-linecap:round;stroke-linejoin:miter;stroke-miterlimit:4;stroke-dasharray:none;stroke-dashoffset:0;stroke-opacity:1;stop-color:#000000"
         d="m 106.46,115.77669 0.15866,0.51619"
         id="path11-6-9" />
      <path
         style="font-variation-settings:normal;fill:#ffffff;fill-opacity:1;stroke:#ff7e79;stroke-width:0.375983;stroke-linecap:round;stroke-linejoin:miter;stroke-miterlimit:4;stroke-dasharray:none;stroke-dashoffset:0;stroke-opacity:1;stop-color:#000000"
         d="m 107.37249,115.91026 -0.25629,0.47533"
         id="path12-1-2" />
      <path
         style="font-variation-settings:normal;fill:#ffffff;fill-opacity:1;stroke:#ff7e79;stroke-width:0.375983;stroke-linecap:round;stroke-linejoin:miter;stroke-miterlimit:4;stroke-dasharray:none;stroke-dashoffset:0;stroke-opacity:1;stop-color:#000000"
         d="m 107.86831,116.66419 -0.53555,0.0693"
         id="path13-4-7" />
      <path
         style="font-variation-settings:normal;fill:#ffffff;fill-opacity:1;stroke:#ff7e79;stroke-width:0.375983;stroke-linecap:round;stroke-linejoin:miter;stroke-miterlimit:4;stroke-dasharray:none;stroke-dashoffset:0;stroke-opacity:1;stop-color:#000000"
         d="m 107.91911,117.6608 -0.53555,0.0693"
         id="path14-2-9" />
      <path
         style="font-variation-settings:normal;fill:#ffffff;fill-opacity:1;stroke:#ff7e79;stroke-width:0.375983;stroke-linecap:round;stroke-linejoin:miter;stroke-miterlimit:4;stroke-dasharray:none;stroke-dashoffset:0;stroke-opacity:1;stop-color:#000000"
         d="m 108.05811,118.5252 -0.51579,0.15994"
         id="path15-3-5" />
      <path
         style="font-variation-settings:normal;fill:#ffffff;fill-opacity:1;stroke:#ff7e79;stroke-width:0.375983;stroke-linecap:round;stroke-linejoin:miter;stroke-miterlimit:4;stroke-dasharray:none;stroke-dashoffset:0;stroke-opacity:1;stop-color:#000000"
         d="m 108.01746,119.5887 -0.47642,-0.25424"
         id="path16-2-4" />
      <path
         style="font-variation-settings:normal;fill:#ffffff;fill-opacity:1;stroke:#ff7e79;stroke-width:0.375983;stroke-linecap:round;stroke-linejoin:miter;stroke-miterlimit:4;stroke-dasharray:none;stroke-dashoffset:0;stroke-opacity:1;stop-color:#000000"
         d="m 107.03606,120.15389 0.0607,-0.5366"
         id="path17-2-3" />
      <path
         style="font-variation-settings:normal;fill:#ffe6d0;fill-opacity:1;stroke:#ff7e79;stroke-width:0.375983;stroke-linecap:butt;stroke-linejoin:miter;stroke-miterlimit:4;stroke-dasharray:none;stroke-dashoffset:0;stroke-opacity:1;stop-color:#000000"
         d="m 105.76769,117.61789 c -0.13027,1.20224 0.89196,2.71207 1.7766,1.97164 0.61653,-0.51605 0.1365,-1.15101 0.0839,-1.69971 -0.0812,-0.84722 0.2002,-1.58177 -0.63352,-1.74401 -0.58215,-0.11328 -1.08307,0.14379 -1.227,1.47208 z"
         id="path5-1-1" />
      <path
         id="path18-6-2"
         style="fill:#ff7e79;fill-opacity:1;stroke:none;stroke-width:0.375982;stroke-linecap:round;stroke-linejoin:round;stroke-miterlimit:9;stroke-dasharray:none;stroke-opacity:1;paint-order:stroke fill markers"
         d="m 106.58274,117.91585 a 0.55930311,0.55930311 0 0 1 -0.45042,-0.65043 0.55930311,0.55930311 0 0 1 0.65044,-0.45042 0.55930311,0.55930311 0 0 1 0.45042,0.65044 0.55930311,0.55930311 0 0 1 -0.65044,0.45041 z" />
    </g>
    <g
       id="g28"
       transform="translate(0.09384351,-1.5014961)"
       data-depth="0.7">
      <path
         style="font-variation-settings:normal;fill:#ffffff;fill-opacity:1;stroke:#ff7e79;stroke-width:0.276825;stroke-linecap:round;stroke-linejoin:miter;stroke-miterlimit:4;stroke-dasharray:none;stroke-dashoffset:0;stroke-opacity:1;stop-color:#000000"
         d="m 110.67751,122.24679 0.0556,-0.3937"
         id="path6-1-5-3" />
      <path
         style="font-variation-settings:normal;fill:#ffffff;fill-opacity:1;stroke:#ff7e79;stroke-width:0.276825;stroke-linecap:round;stroke-linejoin:miter;stroke-miterlimit:4;stroke-dasharray:none;stroke-dashoffset:0;stroke-opacity:1;stop-color:#000000"
         d="m 110.05943,121.9107 0.2333,-0.32196"
         id="path7-1-7-4" />
      <path
         style="font-variation-settings:normal;fill:#ffffff;fill-opacity:1;stroke:#ff7e79;stroke-width:0.276825;stroke-linecap:round;stroke-linejoin:miter;stroke-miterlimit:4;stroke-dasharray:none;stroke-dashoffset:0;stroke-opacity:1;stop-color:#000000"
         d="m 109.60036,121.42043 0.28311,-0.27916"
         id="path8-5-6-1" />
      <path
         style="font-variation-settings:normal;fill:#ffffff;fill-opacity:1;stroke:#ff7e79;stroke-width:0.276825;stroke-linecap:round;stroke-linejoin:miter;stroke-miterlimit:4;stroke-dasharray:none;stroke-dashoffset:0;stroke-opacity:1;stop-color:#000000"
         d="m 109.32187,120.78658 0.38083,-0.11426"
         id="path9-2-1-1" />
      <path
         style="font-variation-settings:normal;fill:#ffffff;fill-opacity:1;stroke:#ff7e79;stroke-width:0.276825;stroke-linecap:round;stroke-linejoin:miter;stroke-miterlimit:4;stroke-dasharray:none;stroke-dashoffset:0;stroke-opacity:1;stop-color:#000000"
         d="m 109.18612,120.22136 0.39647,-0.03"
         id="path10-7-8-3" />
      <path
         style="font-variation-settings:normal;fill:#ffffff;fill-opacity:1;stroke:#ff7e79;stroke-width:0.276825;stroke-linecap:round;stroke-linejoin:miter;stroke-miterlimit:4;stroke-dasharray:none;stroke-dashoffset:0;stroke-opacity:1;stop-color:#000000"
         d="m 109.39238,119.55904 0.29033,0.27165"
         id="path11-6-9-8" />
      <path
         style="font-variation-settings:normal;fill:#ffffff;fill-opacity:1;stroke:#ff7e79;stroke-width:0.276825;stroke-linecap:round;stroke-linejoin:miter;stroke-miterlimit:4;stroke-dasharray:none;stroke-dashoffset:0;stroke-opacity:1;stop-color:#000000"
         d="m 110.02418,119.31029 0.0103,0.39747"
         id="path12-1-2-7" />
      <path
         style="font-variation-settings:normal;fill:#ffffff;fill-opacity:1;stroke:#ff7e79;stroke-width:0.276825;stroke-linecap:round;stroke-linejoin:miter;stroke-miterlimit:4;stroke-dasharray:none;stroke-dashoffset:0;stroke-opacity:1;stop-color:#000000"
         d="m 110.61692,119.61038 -0.31673,0.24035"
         id="path13-4-7-4" />
      <path
         style="font-variation-settings:normal;fill:#ffffff;fill-opacity:1;stroke:#ff7e79;stroke-width:0.276825;stroke-linecap:round;stroke-linejoin:miter;stroke-miterlimit:4;stroke-dasharray:none;stroke-dashoffset:0;stroke-opacity:1;stop-color:#000000"
         d="m 111.01423,120.22842 -0.31673,0.24035"
         id="path14-2-9-2" />
      <path
         style="font-variation-settings:normal;fill:#ffffff;fill-opacity:1;stroke:#ff7e79;stroke-width:0.276825;stroke-linecap:round;stroke-linejoin:miter;stroke-miterlimit:4;stroke-dasharray:none;stroke-dashoffset:0;stroke-opacity:1;stop-color:#000000"
         d="m 111.41948,120.72971 -0.27093,0.291"
         id="path15-3-5-7" />
      <path
         style="font-variation-settings:normal;fill:#ffffff;fill-opacity:1;stroke:#ff7e79;stroke-width:0.276825;stroke-linecap:round;stroke-linejoin:miter;stroke-miterlimit:4;stroke-dasharray:none;stroke-dashoffset:0;stroke-opacity:1;stop-color:#000000"
         d="m 111.78287,121.42395 -0.39742,0.012"
         id="path16-2-4-7" />
      <path
         style="font-variation-settings:normal;fill:#ffffff;fill-opacity:1;stroke:#ff7e79;stroke-width:0.276825;stroke-linecap:round;stroke-linejoin:miter;stroke-miterlimit:4;stroke-dasharray:none;stroke-dashoffset:0;stroke-opacity:1;stop-color:#000000"
         d="m 111.36286,122.14429 -0.15769,-0.365"
         id="path17-2-3-9" />
      <path
         style="font-variation-settings:normal;fill:#ffe6d0;fill-opacity:1;stroke:#ff7e79;stroke-width:0.276825;stroke-linecap:butt;stroke-linejoin:miter;stroke-miterlimit:4;stroke-dasharray:none;stroke-dashoffset:0;stroke-opacity:1;stop-color:#000000"
         d="m 109.6242,120.98865 c 0.35693,0.81567 1.56268,1.40591 1.85671,0.60906 0.20491,-0.55536 -0.33419,-0.78523 -0.56866,-1.1165 -0.36203,-0.51147 -0.4512,-1.08372 -1.04317,-0.88213 -0.41336,0.14076 -0.63922,0.48837 -0.24488,1.38957 z"
         id="path5-1-1-3" />
      <path
         id="path18-6-2-1"
         style="fill:#ff7e79;fill-opacity:1;stroke:none;stroke-width:0.276824;stroke-linecap:round;stroke-linejoin:round;stroke-miterlimit:9;stroke-dasharray:none;stroke-opacity:1;paint-order:stroke fill markers"
         d="m 110.25394,120.88059 a 0.41179812,0.41179812 0 0 1 -0.52585,-0.25059 0.41179812,0.41179812 0 0 1 0.2506,-0.52586 0.41179812,0.41179812 0 0 1 0.52585,0.2506 0.41179812,0.41179812 0 0 1 -0.2506,0.52585 z" />
    </g>
  </g>
</svg>
